<svg xmlns="http://www.w3.org/2000/svg" xmlns:xlink="http://www.w3.org/1999/xlink" version="1.1" x="0px" y="0px" viewBox="0 0 100 125" enable-background="new 0 0 100 100" xml:space="preserve"><g><rect x="-192" width="185" height="99"/><rect y="-36" width="100" height="30"/><text transform="matrix(1 0 0 1 66 -19.5)" fill="#000000" font-family="'Helvetica'" font-size="2.4">http://thenounproject.com</text><text transform="matrix(1 0 0 1 7.166 -24.5)"><tspan x="0" y="0" fill="#000000" font-family="'Helvetica-Bold'" font-size="6.1578">The Noun Project</tspan><tspan x="1.12" y="4.8" fill="#000000" font-family="'Helvetica-Bold'" font-size="4">Icon Template</tspan></text><text transform="matrix(1 0 0 1 -178.5 10.5)" fill="#000000" font-family="'Helvetica-Bold'" font-size="6.1578">Reminders</text><line fill="#000000" stroke="#FFFFFF" stroke-miterlimit="10" x1="8" y1="-14.5" x2="18" y2="-14.5"/><line fill="#000000" stroke="#FFFFFF" stroke-miterlimit="10" x1="-179" y1="16.5" x2="-162" y2="16.5"/><g><g><g><rect x="-170.802" y="31.318" fill="#000000" width="8.721" height="8.642"/><path fill="#000000" d="M-164.455,42.312h4.747v-4.703h-4.747V42.312z M-159.266,42.749h-5.63V37.17h5.63V42.749      L-159.266,42.749z M-166.221,44.062h8.279v-8.203h-8.279V44.062L-166.221,44.062z M-157.5,44.5h-9.163v-9.079h9.163V44.5      L-157.5,44.5z"/><polygon fill="#000000" points="-166.149,44.133 -166.292,43.991 -158.013,35.787 -157.871,35.929     "/></g></g></g><rect x="-179" y="58" fill="none" width="35" height="32.5"/><text transform="matrix(1 0 0 1 -179 60.1572)"><tspan x="0" y="0" fill="#000000" font-family="'Helvetica-Bold'" font-size="3">Strokes</tspan><tspan x="0" y="5" fill="#000000" font-family="'Helvetica'" font-size="2.4">Try to keep strokes at 4px</tspan><tspan x="0" y="10" fill="#000000" font-family="'Helvetica'" font-size="2.4">Minimum stroke weight is 2px</tspan><tspan x="0" y="14.5" fill="#000000" font-family="'Helvetica'" font-size="2.4">For thicker strokes use even </tspan><tspan x="0" y="17.5" fill="#000000" font-family="'Helvetica'" font-size="2.4">numbers: 6px, 8px etc.</tspan><tspan x="0" y="22" fill="#000000" font-family="'Helvetica-Bold'" font-size="2.4">Remember to expand strokes </tspan><tspan x="0" y="25" fill="#000000" font-family="'Helvetica-Bold'" font-size="2.4">before saving as an SVG </tspan></text><rect x="-136.5" y="58" fill="none" width="35" height="32.5"/><text transform="matrix(1 0 0 1 -136.5 60.1572)"><tspan x="0" y="0" fill="#000000" font-family="'Helvetica-Bold'" font-size="3">Size</tspan><tspan x="0" y="5" fill="#000000" font-family="'Helvetica'" font-size="2.4">Cannot be wider or taller than </tspan><tspan x="0" y="8.5" fill="#000000" font-family="'Helvetica'" font-size="2.4">100px (artboard size)</tspan><tspan x="0" y="13.5" fill="#000000" font-family="'Helvetica'" font-size="2.4">Scale your icon to fill as much of </tspan><tspan x="0" y="16.5" fill="#000000" font-family="'Helvetica'" font-size="2.4">the artboard as possible</tspan></text><rect x="-94" y="58" fill="none" width="35" height="32.5"/><text transform="matrix(1 0 0 1 -94 60.1572)"><tspan x="0" y="0" fill="#000000" font-family="'Helvetica-Bold'" font-size="3">Ungroup</tspan><tspan x="0" y="5" fill="#000000" font-family="'Helvetica'" font-size="2.4">If your design has more than one </tspan><tspan x="0" y="8" fill="#000000" font-family="'Helvetica'" font-size="2.4">shape, make sure to ungroup</tspan></text><rect x="-50" y="58" fill="none" width="35" height="32.5"/><text transform="matrix(1 0 0 1 -50 60.1572)"><tspan x="0" y="0" fill="#000000" font-family="'Helvetica-Bold'" font-size="3">Save as</tspan><tspan x="0" y="5" fill="#000000" font-family="'Helvetica'" font-size="2.4">Save as .SVG and make sure </tspan><tspan x="0" y="8" fill="#000000" font-family="'Helvetica'" font-size="2.4">“Use Artboards” is checked</tspan></text><text transform="matrix(1.0074 0 0 1 -125.542 30.5933)" fill="#000000" font-family="'Helvetica'" font-size="2.5731">100px</text><text transform="matrix(1.0074 0 0 1 -41 39)" fill="#000000" font-family="'Helvetica-Bold'" font-size="5.1462">.SVG</text><rect x="-126.514" y="34.815" fill="#000000" width="10.261" height="10.185"/><rect x="-126.477" y="31.766" fill="#000000" width="0.522" height="2.337"/><rect x="-116.812" y="31.766" fill="#000000" width="0.523" height="2.337"/><rect x="-127" y="32.337" fill="#000000" width="11.233" height="0.572"/><g><rect x="-83.805" y="33.844" fill="#000000" width="10.305" height="10.156"/><rect x="-76.809" y="28.707" fill="#000000" width="3.308" height="3.261"/></g><rect x="-178.5" y="22.5" fill="#000000" stroke="#FFFFFF" stroke-miterlimit="10" width="30" height="30"/><rect x="-136.5" y="22.5" fill="#000000" stroke="#FFFFFF" stroke-miterlimit="10" width="30" height="30"/><rect x="-93.5" y="22.5" fill="#000000" stroke="#FFFFFF" stroke-miterlimit="10" width="30" height="30"/><rect x="-49.5" y="22.5" fill="#000000" stroke="#FFFFFF" stroke-miterlimit="10" width="30" height="30"/></g><g><path fill="#000000" d="M87,34.081c0-4.436-1.396-7.513-3.427-9.544c-0.007-0.008-0.011-0.019-0.019-0.027   c-0.109-0.132-0.234-0.246-0.361-0.354c-0.004-0.004-0.008-0.009-0.014-0.013c-0.037-0.032-0.074-0.063-0.113-0.093   c-2.23-1.945-5.092-2.761-7.739-2.761c-0.347,0-0.616,0.014-0.784,0.028l-46.75-0.028c-3.688,0-6.654,0.938-8.858,2.774   c-0.023,0.018-0.046,0.035-0.069,0.054c-0.365,0.309-0.713,0.636-1.035,0.996c-3,3.352-2.883,7.583-2.801,8.633l-0.027,29.461   c0,6.136,2.631,9.24,4.838,10.766c3.167,2.187,6.75,2.066,7.618,2l46.105,0.026c4.312,0,7.711-1.267,10.104-3.763   c3.417-3.565,3.323-8.176,3.306-8.562C86.973,63.675,87,40.344,87,34.081z M74.672,27.234l0.301-0.015   c0.045-0.003,0.17-0.012,0.354-0.012c0.12,0,0.223,0.023,0.339,0.027L51.01,47.788L26.409,27.281   c0.438-0.045,0.894-0.074,1.383-0.074L74.672,27.234z M27.33,70.053l-0.301,0.018c-0.196,0.011-2.161,0.183-3.827-0.971   c-0.216-0.148-0.413-0.321-0.599-0.51l17.9-14.925l-1.895-2.272l-17.4,14.506c-0.189-0.788-0.29-1.683-0.29-2.691l0.028-29.588   l-0.02-0.331c0-0.017-0.098-1.251,0.361-2.571l27.827,23.196c0.548,0.458,1.222,0.687,1.894,0.687c0.674,0,1.348-0.229,1.895-0.687   l27.711-23.101c0.302,0.92,0.468,1.999,0.468,3.27c0,6.26-0.026,29.586-0.022,29.717c0,0.018,0.012,1.202-0.512,2.514   L62.209,51.027l-1.896,2.273l18.455,15.385c-1.231,0.924-2.974,1.396-5.205,1.396L27.33,70.053z"/></g><text x="0" y="115" fill="#000000" font-size="5px" font-weight="bold" font-family="'Helvetica Neue', Helvetica, Arial-Unicode, Arial, Sans-serif">Created by Molly Bramlet</text><text x="0" y="120" fill="#000000" font-size="5px" font-weight="bold" font-family="'Helvetica Neue', Helvetica, Arial-Unicode, Arial, Sans-serif">from the Noun Project</text></svg>