<?xml version="1.0" standalone="no"?>
<!DOCTYPE svg PUBLIC "-//W3C//DTD SVG 20010904//EN"
 "http://www.w3.org/TR/2001/REC-SVG-20010904/DTD/svg10.dtd">
<svg version="1.0" xmlns="http://www.w3.org/2000/svg"
 width="360.000000pt" height="360.000000pt" viewBox="0 0 360.000000 360.000000"
 preserveAspectRatio="xMidYMid meet">
<metadata>
Created by potrace 1.14, written by Peter Selinger 2001-2017
</metadata>
<g transform="translate(0.000000,360.000000) scale(0.100000,-0.100000)"
fill="#000000" stroke="none">
<path d="M0 1800 l0 -1800 1800 0 1800 0 0 1800 0 1800 -1800 0 -1800 0 0
-1800z m2548 790 c18 -11 41 -34 52 -52 19 -31 20 -51 20 -365 0 -329 0 -332
-22 -353 -12 -11 -25 -20 -30 -20 -21 0 -1302 -151 -1305 -154 -2 -2 10 -121
27 -264 l32 -260 -20 -46 c-24 -52 -66 -82 -129 -92 -57 -8 -129 26 -158 76
-19 34 -20 54 -23 729 -3 690 -2 694 19 738 14 29 34 50 58 63 35 18 65 19
741 20 686 0 706 -1 738 -20z"/>
<path d="M1727 2355 c-291 -35 -531 -66 -534 -69 -6 -6 25 -305 33 -318 3 -4
257 -8 565 -8 l559 0 0 28 c0 15 -9 99 -20 187 -33 266 -28 245 -53 244 -12
-1 -260 -30 -550 -64z"/>
</g>
</svg>
